<?xml version="1.0" encoding="utf-8"?>
<svg id="master-artboard" xmlns="http://www.w3.org/2000/svg" viewBox="0 0 532.49462890625 519.322021484375" width="532.49462890625px" height="519.322021484375px"><rect id="ee-background" x="0" y="0" width="532.49462890625" height="519.322021484375" style="fill: white; fill-opacity: 0; pointer-events: none;"/><g transform="matrix(2.499999761581421, 0, 0, 2.499999761581421, -176.3987579345703, 250.95762634277344)"><g transform="translate(0.000000,200.000000) scale(0.100000,-0.100000)" fill="#000000" stroke="none">
<path d="M926 1378 c-9 -13 -16 -43 -16 -70 l0 -48 -50 0 c-77 0 -90 -19 -90&#10;-128 0 -73 3 -92 18 -105 10 -10 26 -17 35 -17 12 0 17 -9 17 -30 0 -37 7 -37&#10;50 0 29 24 44 29 86 30 27 0 55 5 62 12 7 7 12 34 12 60 0 26 4 48 8 48 4 0&#10;23 -16 42 -35 19 -19 38 -35 42 -35 4 0 8 16 8 35 0 30 3 35 24 35 42 0 56 34&#10;56 135 0 135 0 135 -160 135 -122 0 -130 -1 -144 -22z m272 -10 c16 -16 16&#10;-190 0 -206 -7 -7 -25 -12 -40 -12 -24 0 -28 -4 -28 -27 l0 -27 -28 27 c-24&#10;23 -37 27 -88 27 -33 0 -65 5 -72 12 -16 16 -16 190 0 206 8 8 51 12 128 12&#10;77 0 120 -4 128 -12z m-288 -161 c0 -53 24 -77 76 -77 l45 0 -3 -47 -3 -48&#10;-56 -3 c-41 -2 -62 -8 -74 -22 -23 -25 -35 -25 -35 0 0 14 -7 20 -23 20 -39 0&#10;-47 18 -47 107 0 94 6 102 78 103 41 0 42 -1 42 -33z" style="fill: rgb(255, 254, 250);" transform="matrix(4.347826574159742, 0, 0, 4.466778755187988, -2577.826533628575, -3301.240234375)"/>
<path d="M1059 1317 c-9 -21 -19 -27 -42 -27 l-30 0 22 -24 c18 -19 22 -32 17&#10;-51 -7 -26 -6 -26 22 -11 26 13 31 13 52 -1 23 -16 23 -16 17 13 -4 21 0 35&#10;16 52 l20 22 -26 0 c-19 0 -31 8 -41 27 l-14 28 -13 -28z" style="fill: rgb(255, 15, 19);" transform="matrix(4.449841499328614, 0, 0, 4.449841499328614, -2632.5701346373517, -3281.800239107518)"/>







<path d="M 1026.2200927734375 815.2100219726562 L 1026.2200927734375 815.2100219726562 L 1105.2554931640625 788.8649291992188" style="fill: rgb(0, 0, 0); fill-opacity: 1; stroke: rgb(0, 0, 0); stroke-opacity: 1; stroke-width: 0; paint-order: fill;"/></g></g></svg>