<?xml version="1.0" encoding="utf-8"?>
<svg id="master-artboard" xmlns="http://www.w3.org/2000/svg" viewBox="0 0 276.10809326171875 180.24118041992188" width="276.10809326171875px" height="180.24118041992188px"><rect id="ee-background" x="0" y="0" width="276.10809326171875" height="180.24118041992188" style="fill: white; fill-opacity: 0; pointer-events: none;"/><g transform="matrix(2.499999761581421, 0, 0, 2.499999761581421, -130.29484748840332, -144.95069885253906)"><g transform="translate(0.000000,200.000000) scale(0.100000,-0.100000)" fill="#000000" stroke="none">
<path d="M926 1378 c-9 -13 -16 -43 -16 -70 l0 -48 -50 0 c-77 0 -90 -19 -90&#10;-128 0 -73 3 -92 18 -105 10 -10 26 -17 35 -17 12 0 17 -9 17 -30 0 -37 7 -37&#10;50 0 29 24 44 29 86 30 27 0 55 5 62 12 7 7 12 34 12 60 0 26 4 48 8 48 4 0&#10;23 -16 42 -35 19 -19 38 -35 42 -35 4 0 8 16 8 35 0 30 3 35 24 35 42 0 56 34&#10;56 135 0 135 0 135 -160 135 -122 0 -130 -1 -144 -22z m272 -10 c16 -16 16&#10;-190 0 -206 -7 -7 -25 -12 -40 -12 -24 0 -28 -4 -28 -27 l0 -27 -28 27 c-24&#10;23 -37 27 -88 27 -33 0 -65 5 -72 12 -16 16 -16 190 0 206 8 8 51 12 128 12&#10;77 0 120 -4 128 -12z m-288 -161 c0 -53 24 -77 76 -77 l45 0 -3 -47 -3 -48&#10;-56 -3 c-41 -2 -62 -8 -74 -22 -23 -25 -35 -25 -35 0 0 14 -7 20 -23 20 -39 0&#10;-47 18 -47 107 0 94 6 102 78 103 41 0 42 -1 42 -33z"/>
<path d="M1059 1317 c-9 -21 -19 -27 -42 -27 l-30 0 22 -24 c18 -19 22 -32 17&#10;-51 -7 -26 -6 -26 22 -11 26 13 31 13 52 -1 23 -16 23 -16 17 13 -4 21 0 35&#10;16 52 l20 22 -26 0 c-19 0 -31 8 -41 27 l-14 28 -13 -28z" style="fill: rgb(255, 15, 19);"/>
<path d="M530 830 c0 -79 0 -80 25 -80 20 0 25 5 25 25 0 18 5 25 20 25 15 0&#10;20 -7 20 -25 0 -20 5 -25 25 -25 22 0 25 4 25 34 0 19 -4 38 -10 41 -5 3 -10&#10;19 -10 35 0 36 -23 50 -79 50 l-41 0 0 -80z m78 22 c2 -7 -3 -12 -12 -12 -9 0&#10;-16 7 -16 16 0 17 22 14 28 -4z"/>
<path d="M700 830 l0 -80 55 0 c48 0 55 2 55 20 0 16 -7 20 -35 20 -19 0 -35&#10;5 -35 10 0 6 14 10 31 10 24 0 30 4 27 18 -2 10 -14 18 -31 20 -36 4 -25 22&#10;14 22 22 0 29 5 29 20 0 18 -7 20 -55 20 l-55 0 0 -80z"/>
<path d="M848 904 c-5 -4 -8 -40 -8 -81 l0 -73 58 0 c32 0 63 5 70 12 14 14&#10;16 106 3 127 -10 15 -111 28 -123 15z m80 -77 c3 -32 0 -37 -17 -37 -18 0 -21&#10;6 -21 41 0 33 3 40 18 37 12 -2 18 -14 20 -41z"/>
<path d="M1017 903 c-4 -3 -7 -39 -7 -80 l0 -73 59 0 c73 0 90 15 73 64 -7 18&#10;-12 42 -12 54 0 15 -9 26 -26 32 -29 11 -78 13 -87 3z m71 -45 c-6 -18 -28&#10;-21 -28 -4 0 9 7 16 16 16 9 0 14 -5 12 -12z m12 -63 c0 -8 -9 -15 -20 -15&#10;-11 0 -20 7 -20 15 0 8 9 15 20 15 11 0 20 -7 20 -15z"/>
<path d="M1170 890 c0 -11 7 -23 15 -26 9 -4 15 -19 15 -40 0 -24 -5 -34 -15&#10;-34 -8 0 -15 -9 -15 -20 0 -18 7 -20 55 -20 48 0 55 2 55 20 0 11 -7 20 -15&#10;20 -10 0 -15 10 -15 34 0 21 6 36 15 40 8 3 15 15 15 26 0 18 -6 20 -55 20&#10;-49 0 -55 -2 -55 -20z"/>
<path d="M1310 830 c0 -79 0 -80 25 -80 20 0 25 5 25 25 0 18 5 25 20 25 15 0&#10;20 -7 20 -25 0 -20 5 -25 25 -25 22 0 25 4 25 34 0 19 -4 38 -10 41 -5 3 -10&#10;19 -10 35 0 36 -23 50 -79 50 l-41 0 0 -80z m78 22 c2 -7 -3 -12 -12 -12 -9 0&#10;-16 7 -16 16 0 17 22 14 28 -4z"/>
<path d="M1480 830 l0 -81 63 3 62 3 3 68 c3 64 2 68 -23 77 -15 6 -44 10 -66&#10;10 l-39 0 0 -80z m80 0 c0 -29 -4 -40 -15 -40 -11 0 -15 11 -15 40 0 29 4 40&#10;15 40 11 0 15 -11 15 -40z"/>
</g></g></svg>